HIERARCHY
ROOT Hips
{
	OFFSET 0.00000 0.00000 0.00000
	CHANNELS 6 Xposition Yposition Zposition Zrotation Yrotation Xrotation 
	JOINT LHipJoint
	{
		OFFSET 0 0 0
		CHANNELS 3 Zrotation Yrotation Xrotation
		JOINT LeftUpLeg
		{
			OFFSET 1.86795 -1.59681 0.65681
			CHANNELS 3 Zrotation Yrotation Xrotation
			JOINT LeftLeg
			{
				OFFSET 2.30491 -6.33268 0.00000
				CHANNELS 3 Zrotation Yrotation Xrotation
				JOINT LeftFoot
				{
					OFFSET 2.46780 -6.78022 0.00000
					CHANNELS 3 Zrotation Yrotation Xrotation
					JOINT LeftToeBase
					{
						OFFSET 0.07897 -0.21698 1.59652
						CHANNELS 3 Zrotation Yrotation Xrotation
						End Site
						{
							OFFSET 0.00000 -0.00000 0.82310
						}
					}
				}
			}
		}
	}
	JOINT RHipJoint
	{
		OFFSET 0 0 0
		CHANNELS 3 Zrotation Yrotation Xrotation
		JOINT RightUpLeg
		{
			OFFSET -1.93650 -1.59681 0.65681
			CHANNELS 3 Zrotation Yrotation Xrotation
			JOINT RightLeg
			{
				OFFSET -2.29410 -6.30299 0.00000
				CHANNELS 3 Zrotation Yrotation Xrotation
				JOINT RightFoot
				{
					OFFSET -2.48738 -6.83403 0.00000
					CHANNELS 3 Zrotation Yrotation Xrotation
					JOINT RightToeBase
					{
						OFFSET -0.08699 -0.23899 1.89395
						CHANNELS 3 Zrotation Yrotation Xrotation
						End Site
						{
							OFFSET -0.00000 -0.00000 0.96904
						}
					}
				}
			}
		}
	}
	JOINT LowerBack
	{
		OFFSET 0 0 0
		CHANNELS 3 Zrotation Yrotation Xrotation
		JOINT Spine
		{
			OFFSET 0.03629 1.99740 -0.07548
			CHANNELS 3 Zrotation Yrotation Xrotation
			JOINT Spine1
			{
				OFFSET 0.03970 1.94298 0.17218
				CHANNELS 3 Zrotation Yrotation Xrotation
				JOINT Neck
				{
					OFFSET 0 0 0
					CHANNELS 3 Zrotation Yrotation Xrotation
					JOINT Neck1
					{
						OFFSET -0.05054 1.79469 0.04241
						CHANNELS 3 Zrotation Yrotation Xrotation
						JOINT Head
						{
							OFFSET 0.05195 1.78475 -0.22133
							CHANNELS 3 Zrotation Yrotation Xrotation
							End Site
							{
								OFFSET 0.02420 1.80711 -0.07950
							}
						}
					}
				}
				JOINT LeftShoulder
				{
					OFFSET 0 0 0
					CHANNELS 3 Zrotation Yrotation Xrotation
					JOINT LeftArm
					{
						OFFSET 2.92134 1.19850 0.36056
						CHANNELS 3 Zrotation Yrotation Xrotation
						JOINT LeftForeArm
						{
							OFFSET 4.84137 -0.00000 0.00000
							CHANNELS 3 Zrotation Yrotation Xrotation
							JOINT LeftHand
							{
								OFFSET 3.24520 -0.00000 -0.00000
								CHANNELS 3 Zrotation Yrotation Xrotation
								JOINT LeftFingerBase
								{
									OFFSET 0 0 0
									CHANNELS 3 Zrotation Yrotation Xrotation
									JOINT LeftHandIndex1
									{
										OFFSET 0.52122 -0.00000 0.00000
										CHANNELS 3 Zrotation Yrotation Xrotation
										End Site
										{
											OFFSET 0.42022 -0.00000 0.00000
										}
									}
								}
								JOINT LThumb
								{
									OFFSET 0 0 0
									CHANNELS 3 Zrotation Yrotation Xrotation
									End Site
									{
										OFFSET 0.42664 -0.00000 0.42664
									}
								}
							}
						}
					}
				}
				JOINT RightShoulder
				{
					OFFSET 0 0 0
					CHANNELS 3 Zrotation Yrotation Xrotation
					JOINT RightArm
					{
						OFFSET -2.84327 1.20795 0.50191
						CHANNELS 3 Zrotation Yrotation Xrotation
						JOINT RightForeArm
						{
							OFFSET -4.72284 -0.00000 0.00000
							CHANNELS 3 Zrotation Yrotation Xrotation
							JOINT RightHand
							{
								OFFSET -3.23459 -0.00000 0.00000
								CHANNELS 3 Zrotation Yrotation Xrotation
								JOINT RightFingerBase
								{
									OFFSET 0 0 0
									CHANNELS 3 Zrotation Yrotation Xrotation
									JOINT RightHandIndex1
									{
										OFFSET -0.30742 -0.00000 0.00000
										CHANNELS 3 Zrotation Yrotation Xrotation
										End Site
										{
											OFFSET -0.24785 -0.00000 0.00000
										}
									}
								}
								JOINT RThumb
								{
									OFFSET 0 0 0
									CHANNELS 3 Zrotation Yrotation Xrotation
									End Site
									{
										OFFSET -0.25163 -0.00000 0.25163
									}
								}
							}
						}
					}
				}
			}
		}
	}
}
MOTION
Frames: 12
Frame Time: 0.0243902
0.00 0.00 0.00 0 0 0 0 0 0 -21 0 0 0 0 0 0 0 0 0 0 0 0 0 0 21 0 0 0 0 0 0 0 0 0 0 0 0 0 0 0 0 0 0 0 0 0 0 -16 0 0 21 0 0 11 0 0 0 -8 0 0 0 0 0 0 0 0 0 0 0 0 0 0 0 0 0 0 0 0 8 0 0 0 0 0 0 0 0 0 0 0 0 0 0 0 0 0
0.00 0.00 0.00 1.5335 -20.2647 12.6355 0.0000 0.0000 0.0000 -13.9440 -21.2710 -28.1121 3.6277 11.6478 34.4971 0.6431 3.4764 -16.8078 0.3555 -3.8304 -10.6000 0.0000 0.0000 0.0000 22.3145 27.7590 -19.6174 -2.0417 -8.9524 25.6465 1.5620 -23.5609 -19.5558 -0.7726 -5.6124 15.6638 1.6696 -1.2973 0.6699 2.2506 -1.5988 -4.7812 1.4817 -0.8229 -5.3003 -6.2568 -0.1235 -2.4966 5.8000 -0.7094 18.2073 2.8433 -0.3926 5.9294 -0.0000 0.0000 0.0000 -28.6121 11.0669 50.6087 22.5915 -33.6391 -6.9107 -0.0000 -0.0000 14.8480 -22.4383 30.6345 -11.8831 -7.1250 0.0000 -0.0000 -53.8130 52.6994 -13.2900 -0.0000 0.0000 0.0000 15.9702 -10.9604 40.3656 -16.5596 26.2736 -3.8904 0.0000 -0.0000 -12.5985 -9.6266 21.7691 -3.5994 7.1250 -0.0000 -0.0000 12.0669 -8.3205 10.4340
0.00 0.00 0.00 2.0562 -20.7220 12.5916 0.0000 0.0000 0.0000 -14.6500 -24.6072 -25.0703 2.7684 10.3103 29.9875 0.4622 0.3215 -12.9641 0.2513 -3.2257 -8.9078 0.0000 0.0000 0.0000 22.2663 27.8087 -18.0970 -1.9257 -8.7096 24.8911 1.5443 -23.5571 -19.8042 -0.6674 -5.2246 14.5502 1.3106 -1.6422 0.5628 2.0375 -2.0651 -6.5516 1.5371 -1.0481 -7.1095 -6.6677 0.6251 -0.7944 6.3533 0.0198 20.6243 3.1622 -0.0834 6.3455 -0.0000 -0.0000 0.0000 -10.2194 11.4110 17.4656 14.0626 -22.8241 -2.8523 -0.0000 -0.0000 22.7267 -23.6503 30.2482 -12.4406 -7.1250 0.0000 -0.0000 -54.3884 52.2093 -12.7446 -0.0000 -0.0000 0.0000 -2.8373 -12.5206 19.2649 -11.9296 19.6990 -2.0785 0.0000 -0.0000 -20.3653 -2.7330 7.7674 -0.3696 7.1250 -0.0000 -0.0000 17.3691 -22.2874 9.9376
0.00 0.00 0.00 1.0086 -28.5674 14.4848 0.0000 0.0000 0.0000 -21.1608 -34.6050 -5.5214 1.0809 6.6082 18.5597 -0.2612 18.2587 -23.5067 0.0412 1.3104 3.6033 0.0000 0.0000 0.0000 22.2116 31.4930 -9.9591 -1.6252 -8.0373 22.8275 1.6817 -24.2511 -19.8783 -0.0030 -0.3515 0.9659 -0.5067 -0.0506 -2.4016 0.7627 -0.1733 -11.2511 1.1222 -0.0567 -10.6025 -4.1730 3.9238 6.0957 8.9229 5.6534 -7.8544 3.1052 2.5090 -3.7126 0.0000 0.0000 0.0000 -2.6446 -0.8861 -15.5109 11.2750 -18.7085 -1.8632 -0.0000 -0.0000 30.7126 -18.8392 48.8583 -14.4102 -7.1250 0.0000 -0.0000 -75.3747 63.7322 -45.4888 0.0000 0.0000 0.0000 -12.6342 -9.5424 7.5292 -13.0031 21.2917 -2.4544 0.0000 -0.0000 -29.4178 -7.7839 -1.0030 0.1371 7.1250 -0.0000 -0.0000 14.8302 -30.7844 5.3095
0.00 0.00 0.00 0.4855 -25.2050 11.0157 0.0000 0.0000 0.0000 -18.7430 -16.5412 -20.2492 3.3843 11.2926 33.2732 0.9550 -1.1483 -18.1199 0.7845 -5.6545 -15.7853 0.0000 0.0000 0.0000 25.2124 28.1628 -9.7254 -2.0718 -9.0142 25.8396 1.2358 -23.2553 -22.8953 -0.2410 -3.1594 8.7229 1.0617 -0.7665 0.6423 2.1047 -0.8821 -8.9221 1.7307 -0.4499 -9.7705 -4.3347 2.3550 -1.4690 8.7845 2.6732 7.9986 3.7676 1.4584 2.6683 -0.0000 -0.0000 0.0000 -9.0320 -2.7419 -19.2958 11.1040 -18.4475 -1.8087 -0.0000 -0.0000 31.0282 -29.5315 47.6028 -22.7021 -7.1250 0.0000 -0.0000 -80.6745 60.1552 -44.9654 -0.0000 -0.0000 0.0000 -9.4268 -6.6594 -1.7927 -12.3313 20.2996 -2.2159 0.0000 -0.0000 -22.8208 -5.2357 0.9805 -0.0898 7.1250 -0.0000 -0.0000 16.4691 -28.8067 6.7526
0.00 0.00 0.00 -1.3188 -23.3775 10.9588 0.0000 0.0000 0.0000 -15.2080 -14.3038 -31.6456 7.3426 15.6137 50.1585 0.3245 -4.2698 -10.1413 0.2956 -3.4958 -9.6623 0.0000 0.0000 0.0000 27.9757 25.6975 -8.7708 -1.9392 -8.7383 24.9801 1.0428 -22.5357 -23.4033 -0.3370 -3.7307 10.3202 2.0668 -0.8579 1.5733 2.5514 -0.8778 -8.3797 1.6503 -0.5000 -9.7351 -4.6268 2.0134 -2.3662 9.8006 1.9075 11.6129 3.8328 1.1903 3.6730 0.0000 -0.0000 0.0000 -9.2386 -3.1218 -19.3035 11.0305 -18.3350 -1.7855 -0.0000 -0.0000 30.6100 -28.5256 48.3988 -22.1191 -7.1250 0.0000 -0.0000 -81.2399 60.7219 -46.4687 0.0000 -0.0000 0.0000 -9.0927 -6.2433 -2.3007 -12.2677 20.2049 -2.1939 0.0000 -0.0000 -22.4675 -3.6733 2.3782 -0.1526 7.1250 -0.0000 -0.0000 17.4203 -27.4406 7.7703
0.00 0.00 0.00 2.5980 -25.9557 6.2938 0.0000 0.0000 0.0000 -21.2182 -23.9947 -12.2826 0.6761 5.2577 14.6451 -0.2050 10.0099 -10.0815 0.1795 -2.7291 -7.5255 0.0000 0.0000 0.0000 16.7394 10.0619 -2.0406 -3.5727 -11.5690 34.2239 0.6811 -14.4455 -6.0139 -0.1016 -2.0559 5.6601 0.0877 0.4403 -1.7886 0.9915 0.5764 -9.2674 0.9696 0.2862 -8.7370 -5.7680 1.4473 -2.0051 11.0292 0.8028 14.7873 4.4324 0.6852 4.6270 -0.0000 -0.0000 0.0000 -12.2335 -0.4291 -16.7216 11.0755 -18.4038 -1.7997 -0.0000 -0.0000 31.0791 -20.7935 40.7872 -13.9317 -7.1250 0.0000 -0.0000 -64.1323 59.3753 -29.5531 -0.0000 -0.0000 0.0000 -7.4509 -0.5800 -0.2026 -12.6659 20.7958 -2.3333 0.0000 -0.0000 -25.6445 -6.3694 0.7901 -0.0882 7.1250 -0.0000 -0.0000 15.6409 -29.0107 6.3088
0.00 0.00 0.00 3.7126 -25.3187 4.6476 0.0000 0.0000 0.0000 -25.8997 -22.1653 -9.4815 0.7757 5.6234 15.6956 0.0589 6.5972 -10.7585 0.1905 2.8111 7.7531 0.0000 0.0000 0.0000 14.1512 6.1807 -14.8535 -7.8973 -16.0432 52.1918 0.6285 -15.1226 -12.0584 -1.0055 -6.3806 17.8928 -2.0523 0.1704 0.0509 0.4532 0.0923 -8.5517 1.6237 0.1934 -9.0317 -5.0006 1.0528 -2.4438 11.2525 0.1751 14.8934 4.3536 0.4430 4.7933 0.0000 0.0000 0.0000 -11.2368 -3.8369 -13.8759 11.8523 -19.5827 -2.0525 -0.0000 -0.0000 29.5558 -15.0770 42.2890 -10.2742 -7.1250 0.0000 -0.0000 -61.6404 61.6950 -31.1565 0.0000 0.0000 0.0000 -6.1713 -1.1850 0.0448 -12.5801 20.6689 -2.3030 0.0000 -0.0000 -25.2403 -5.4737 0.1573 -0.0151 7.1250 -0.0000 -0.0000 16.4192 -29.6044 6.4044
0.00 0.00 0.00 1.0604 -23.2818 8.9654 0.0000 0.0000 0.0000 -25.7818 -35.4831 -0.4581 1.0143 6.4076 17.9719 -0.7566 20.2972 -21.9553 0.1201 2.2339 6.1526 0.0000 0.0000 0.0000 19.2486 36.5238 -7.2352 -1.3109 -7.2524 20.4654 0.9481 -28.7816 -35.4049 -2.3270 -9.5162 27.4240 2.8632 -0.1771 -5.8243 0.8279 -0.3364 -9.8643 -0.7230 -0.3840 -7.0713 -5.8591 0.1427 -2.8568 9.0008 -0.9901 19.2805 3.8133 -0.2729 6.3354 -0.0000 -0.0000 0.0000 -10.4556 -4.3050 -20.7722 11.1999 -18.5941 -1.8392 -0.0000 -0.0000 29.0923 -0.5185 43.1579 -0.3547 -7.1250 0.0000 -0.0000 -50.5131 66.3617 -29.0400 -0.0000 -0.0000 0.0000 -4.9868 -0.9879 -0.2981 -12.4441 20.4673 -2.2552 0.0000 -0.0000 -25.8689 -4.5585 1.1849 -0.0945 7.1250 -0.0000 -0.0000 16.9466 -28.5978 7.0531
0.00 0.00 0.00 1.3011 -26.2978 12.8516 0.0000 0.0000 0.0000 -22.7386 -36.9100 -0.9253 0.7728 5.6133 15.6664 -0.6197 21.5268 -25.5653 0.3278 3.6799 10.1778 0.0000 0.0000 0.0000 18.3302 34.8496 -12.8014 -1.5193 -7.7834 22.0581 2.3376 -27.4290 -20.8066 -0.1308 -2.3316 6.4230 -0.0816 -0.3079 -3.2752 1.2209 -0.4333 -8.6878 1.3413 -0.1992 -7.2143 -5.0093 0.8420 -2.0889 10.9474 -0.5510 19.8122 4.3365 0.1156 6.3203 -0.0000 -0.0000 0.0000 -16.2617 7.2128 -14.5358 22.2430 -33.2506 -6.7186 -0.0000 -0.0000 40.6374 -18.1291 48.6711 -13.8130 -7.1250 0.0000 -0.0000 -74.5425 63.8736 -44.9290 -0.0000 -0.0000 0.0000 6.0810 -4.0569 -17.6628 -13.7553 22.3839 -2.7342 0.0000 0.0000 8.1762 27.1426 0.0516 0.0265 7.1250 -0.0000 -0.0000 38.3138 -27.3911 21.2730
0.00 0.00 0.00 1.9898 -25.1790 12.1215 0.0000 0.0000 0.0000 -22.7377 -34.0860 -1.5580 0.6919 5.3176 14.8168 -0.5296 19.0913 -22.1741 0.0462 1.3868 3.8138 0.0000 0.0000 0.0000 18.2217 33.4140 -13.1637 -1.6324 -8.0543 22.8791 2.3722 -27.3754 -20.0686 -0.0474 -1.4046 3.8627 -0.8992 0.0072 0.1618 0.2389 -0.0962 -9.0537 0.7695 0.0049 -9.6426 -4.4052 -0.7193 -6.4760 10.7545 -2.6134 19.7384 4.0509 -0.7149 7.2670 -0.0000 -0.0000 0.0000 -47.9781 18.2304 -7.7588 80.6356 -59.6660 -51.8992 -0.0000 -0.0000 59.8579 -59.3585 41.6113 -48.2660 -7.1250 0.0000 -0.0000 -91.5737 51.1693 -38.4672 -0.0000 -0.0000 0.0000 48.7826 -20.3524 -6.8990 -34.6363 44.5507 -14.5576 0.0000 0.0000 23.0930 51.1873 -5.5093 -6.8063 7.1250 -0.0000 -0.0000 45.7309 -21.4300 42.8568
0.00 0.00 0.00 2.0146 -24.8718 12.1808 0.0000 0.0000 0.0000 -22.4062 -34.5979 -2.3784 0.7484 5.5259 15.4147 -0.3247 18.4138 -23.1319 0.2037 2.9060 8.0171 0.0000 0.0000 0.0000 17.9360 32.8038 -13.9730 -1.6300 -8.0486 22.8617 2.1586 -26.6080 -20.5457 -0.1015 -2.0546 5.6566 -0.4652 0.2657 0.9004 0.5874 0.3161 -8.4329 0.8581 0.1925 -9.3970 -5.5122 -1.0941 -8.0597 9.1992 -2.3063 16.2529 3.6846 -0.7593 6.4087 -0.0000 0.0000 0.0000 -72.5810 17.6007 26.7111 98.6447 -59.7157 -67.4794 -0.0000 -0.0000 54.3295 -65.0852 38.7556 -53.4242 -7.1250 0.0000 -0.0000 -90.1826 49.6129 -31.9550 -0.0000 0.0000 0.0000 77.1736 -16.1195 7.7975 -56.0367 55.1579 -31.0652 0.0000 0.0000 22.9570 54.4326 -3.8289 -5.3351 7.1250 -0.0000 -0.0000 44.2666 -15.0047 51.7418
